<svg xmlns="http://www.w3.org/2000/svg" version="1.1" xmlns:xlink="http://www.w3.org/1999/xlink" xmlns:svgjs="http://svgjs.dev/svgjs" width="2000" height="797" viewBox="0 0 2000 797"><g transform="matrix(1,0,0,1,-1.2121212121212466,1.0552254241853802)"><svg viewBox="0 0 396 158" data-background-color="#f9f9f9" preserveAspectRatio="xMidYMid meet" height="797" width="2000" xmlns="http://www.w3.org/2000/svg" xmlns:xlink="http://www.w3.org/1999/xlink"><defs></defs><g id="tight-bounds" transform="matrix(1,0,0,1,0.2400000000000091,-0.2091914893617144)"><svg viewBox="0 0 395.52 158.41838297872343" height="158.41838297872343" width="395.52"><g><svg viewBox="0 0 395.52 158.41838297872343" height="158.41838297872343" width="395.52"><g><svg viewBox="0 0 395.52 158.41838297872343" height="158.41838297872343" width="395.52"><g><svg viewBox="0 0 395.52 158.41838297872343" height="158.41838297872343" width="395.52"><g><svg viewBox="0 0 395.52 158.41838297872343" height="158.41838297872343" width="395.52"><g transform="matrix(1,0,0,1,0,0)"><svg width="395.52" viewBox="2.5 -37.45000076293945 94 37.650001525878906" height="158.41838297872343" data-palette-color="#fff7f7"><path d="M5.15-33.95L2.5-34.25 2.55-35 13.25-35Q24.05-35 24.05-26.55L24.05-26.55Q24.05-23.3 19.75-19.45L19.75-19.45Q26.1-17.9 26.1-10.35L26.1-10.35Q26.1-4.45 23.13-2.23 20.15 0 14 0L14 0 12.55 0 2.5 0.05 2.55-0.65 5.15-1Q5.65-1.05 5.75-1.65L5.75-1.65 5.75-33.25Q5.65-33.9 5.15-33.95L5.15-33.95ZM15-19.15L15-19.15 9.15-19.15 9.15-0.75 13.75-0.75Q22.7-0.75 22.7-10.15L22.7-10.15Q22.7-14.95 20.78-17.05 18.85-19.15 15-19.15ZM9.15-19.9L15.25-19.9Q17.1-19.9 18.45-19.7L18.45-19.7Q20.65-23.15 20.65-26.25L20.65-26.25Q20.65-34.25 13-34.25L13-34.25 9.15-34.25 9.15-19.9ZM57.7-17.6L68.2-17.65Q68.2-17.6 68.25-16.9L68.25-16.9 64.55-16.6Q62.9-10.2 59.35-6.15L59.35-6.15Q61.65-4.1 65.35-0.95L65.35-0.95 67.75-0.75Q67.75-0.7 67.7 0L67.7 0 63.35 0.05 62.25 0.05 57.35-4.2Q52.15 0.2 44.25 0.2L44.25 0.2Q30.9 0.2 30.9-11.45L30.9-11.45Q30.9-16.45 33.37-19.33 35.85-22.2 40.05-23.05L40.05-23.05Q37.3-27.25 37.3-29.95 37.3-32.65 39.5-35.05 41.7-37.45 46.1-37.45L46.1-37.45Q48.45-37.45 49.7-36.98 50.95-36.5 51.65-36.2 52.35-35.9 53-35.45 53.65-35 54.05-34.75L54.05-34.75Q54.85-34.2 55.35-33.7L55.35-33.7 54.95-33.2Q50.75-36.7 46.75-36.7L46.75-36.7Q44.85-36.7 43.52-35.93 42.2-35.15 41.6-34L41.6-34Q40.55-31.9 40.55-30.1L40.55-30.1Q40.55-23.4 57.8-7.55L57.8-7.55Q60.35-11.2 61.45-15.9L61.45-15.9Q61.45-16.5 60.85-16.6L60.85-16.6 57.75-16.85Q57.7-17.15 57.7-17.6L57.7-17.6ZM44.6-0.55L44.6-0.55Q51.5-0.55 56.1-5.4L56.1-5.4Q45.15-15.45 40.5-22.3L40.5-22.3Q37.45-21.45 35.8-18.7 34.15-15.95 34.15-11.2 34.15-6.45 36.65-3.5 39.15-0.55 44.6-0.55ZM75.55-33.95L72.9-34.25 72.95-35 83.65-35Q94.45-35 94.45-26.55L94.45-26.55Q94.45-23.3 90.15-19.45L90.15-19.45Q96.5-17.9 96.5-10.35L96.5-10.35Q96.5-4.45 93.52-2.23 90.55 0 84.4 0L84.4 0 82.95 0 72.9 0.05 72.95-0.65 75.55-1Q76.05-1.05 76.15-1.65L76.15-1.65 76.15-33.25Q76.05-33.9 75.55-33.95L75.55-33.95ZM85.4-19.15L85.4-19.15 79.55-19.15 79.55-0.75 84.15-0.75Q93.1-0.75 93.1-10.15L93.1-10.15Q93.1-14.95 91.17-17.05 89.25-19.15 85.4-19.15ZM79.55-19.9L85.65-19.9Q87.5-19.9 88.85-19.7L88.85-19.7Q91.05-23.15 91.05-26.25L91.05-26.25Q91.05-34.25 83.4-34.25L83.4-34.25 79.55-34.25 79.55-19.9Z" opacity="1" transform="matrix(1,0,0,1,0,0)" fill="#fff7f7" class="undefined-text-0" data-fill-palette-color="primary" id="text-0"></path></svg></g></svg></g></svg></g></svg></g><g></g></svg></g></svg><rect width="395.52" height="158.41838297872343" fill="none" stroke="none" visibility="hidden"></rect></g></svg></g></svg>